/* XPM */
static char *SDRHelp_xpm[]={
"32 32 149 2",
"      c #FFFFFF",
" 0    c #676787",
" 1    c #000000",
" 2    c #6F6F00",
" 3    c #676700",
" 4    c #D3D3E1",
" 5    c #CBCBE1",
" 6    c #CBCB00",
" 7    c #FFFF00",
" 8    c #C4C4E1",
" 9    c #000026",
" a    c #B5B500",
" b    c #BCBCD3",
" c    c #A5A5A5",
" d    c #686878",
" e    c #808000",
" f    c #6F6F96",
" g    c #D3D300",
" h    c #606080",
" i    c #484848",
" j    c #787887",
" k    c #787800",
" l    c #000037",
" m    c #686887",
" n    c #80808F",
" o    c #70708F",
" p    c #606060",
" q    c #262637",
" r    c #707097",
" s    c #787878",
" t    c #777787",
" u    c #5F5F7F",
" v    c #C4C4C4",
" w    c #D3D3DA",
" x    c #00002F",
" y    c #C4C400",
" z    c #686868",
" A    c #606037",
" B    c #CBCBD3",
" C    c #6C6C6C",
" D    c #6A6A89",
" E    c #D4D400",
" F    c #060644",
" G    c #DEDEED",
" H    c #525252",
" I    c #4C4C4C",
" J    c #5C5C5C",
" K    c #545454",
" L    c #666262",
" M    c #0F0B2F",
" N    c #7E7A7A",
" O    c #605860",
" P    c #666666",
" Q    c #B5B5B5",
" R    c #AAAAAA",
" S    c #D7D7D7",
" T    c #DFDFDF",
" U    c #002222",
" V    c #000328",
" W    c #002626",
" X    c #808080",
" Y    c #005400",
" Z    c #A1A1A1",
" &    c #D4D4D4",
"0     c #A4A4A4",
"00    c #625A5A",
"01    c #004C4C",
"02    c #001D1D",
"03    c #001919",
"04    c #7A7676",
"05    c #00B200",
"06    c #004400",
"07    c #A10000",
"08    c #FF0000",
"09    c #DBDBDB",
"0a    c #C1C1C1",
"0b    c #959595",
"0c    c #BFBFBF",
"0d    c #CCCCCC",
"0e    c #A2A2A2",
"0f    c #7A7272",
"0g    c #807C7C",
"0h    c #868282",
"0i    c #221D3F",
"0j    c #222244",
"0k    c #6C5C6C",
"0l    c #6A626A",
"0m    c #5A6A6A",
"0n    c #546C6C",
"0o    c #4E4E4E",
"0p    c #9B9B9B",
"0q    c #878787",
"0r    c #868686",
"0s    c #7A7A7A",
"0t    c #D9D9D9",
"0u    c #625A62",
"0v    c #CECECE",
"0w    c #A8A8A8",
"0x    c #ACACAC",
"0y    c #B2B2B2",
"0z    c #505050",
"0A    c #828282",
"0B    c #C1B9C1",
"0C    c #60AE60",
"0D    c #008E00",
"0E    c #009200",
"0F    c #009800",
"0G    c #002C00",
"0H    c #009A00",
"0I    c #008A00",
"0J    c #DDCEDD",
"0K    c #D0D0D0",
"0L    c #7E7E7E",
"0M    c #BFB7BF",
"0N    c #B7A8B7",
"0O    c #D7C8D7",
"0P    c #3F3760",
"0Q    c #443B64",
"0R    c #C6B7C6",
"0S    c #B9AAB9",
"0T    c #7C7C7C",
"0U    c #D5D5D5",
"0V    c #BBBBBB",
"0W    c #919191",
"0X    c #BDBDBD",
"0Y    c #C8C8C8",
"0Z    c #C3C3C3",
"0&    c #353556",
"1     c #B9B9B9",
"10    c #747474",
"11    c #C5C5C5",
"12    c #4A4A4A",
"13    c #444444",
"14    c #D2D2D2",
"15    c #373758",
"16    c #3B3B5C",
"17    c #B7B7B7",
"18    c #6B6B6B",
"19    c #6F6F6F",
"1a    c #717171",
"1b    c #737373",
"1c    c #797979",
"1d    c #1B1B2C",
"1e    c #7B7B7B",
"1f    c #4F4F6F",
"1g    c #BCBC00",
"1h    c #606087",
"1i    c #484868",
"1j    c #686800",
"                                                                ",
"                       0 1 2 3 3 3 3 3 3 3 3 2 1 4              ",
"                   5 1 6 7 7 7 7 7 7 7 7 7 7 7 7 1 8            ",
"                 9 3 7 7 7 7 7 7 7 7 7 7 7 7 7 7 7 a b          ",
"       c       d e 7 7 7 7 1 f 0 0 0 0 0 f 1 g 7 7 7 h          ",
"         i     j k 7 7 g 1 4                 l 7 7 7 m          ",
"           i   n k 7 7 l                     o 7 7 7 m          ",
"             p q e 7 7 o                     r 7 7 7 m          ",
"               n k 7 7 h                     1 7 7 7 h          ",
"               s t 0 u v                 w x g 7 7 y b          ",
"               z                       0 1 7 7 7 7 1            ",
"               z                   u A y 7 7 7 g 1 4            ",
"               z               4 1 6 7 7 7 7 6 9                ",
"               z             B 1 7 7 7 7 3 1 0                  ",
"               C             D 7 7 7 E F G                      ",
"       1 H I i J I i K p p L M 7 7 7 F N z K p p O p p P 1      ",
"       H Q R S R R T z 1 1 U V 7 7 7 1 W 1 X 1 1 Y 1 1 1 P      ",
"       I R Z &0  Z &00010202 V 7 7 7 1 U0304 105060708 1 p      ",
"       i090a s0b0c0d0e0f0g0h0i 7 7 70j0h040  P0k0l0m0n C K      ",
"      0o0p X0q0r0s0t0u 1 1 1 1 7 7 7 1 1 10v0w0x0c0c0x0y I      ",
"      0z0r0q0q0q0A0B0C0D0E0F0G 7 7 70G0H0I0J0K0e0v0v0e09 i      ",
"       I0y0L0r0q0s0K0M0N0N0O0P 7 7 70Q0R0S0d Z0T0 0 0T0x I      ",
"       i0U0V0W s0X0Y Q0 0 0Z0& 7 7 70j0q s0v1 100V0V101112      ",
"      13 S0v14 &0v0v0V0w0w0Y15 7 7 71617 R0K0v &0v0v &0t13      ",
"      181919191919191a1b1b1c1d 2 3 21d1e1b1919191919191918      ",
"                                                                ",
"                                1f b                            ",
"                               1 71g1h                          ",
"                            1i 7 7 71j                          ",
"                               1 71g1h                          ",
"                                1f b                            ",
"                                                                "};
