/* XPM */
static char *SDRSetup_xpm[]={
"32 32 138 2",
"      c None",
" 0    c #BCBCBC",
" 1    c #0B0B0B",
" 2    c #606060",
" 3    c #707070",
" 4    c #686868",
" 5    c #6C6C6C",
" 6    c #CBCFD1",
" 7    c #5F6F77",
" 8    c #676B6D",
" 9    c #444444",
" a    c #585858",
" b    c #484848",
" c    c #4E4E4E",
" d    c #000000",
" e    c #D3D6D8",
" f    c #FF9F48",
" g    c #603F2F",
" h    c #D7D7D7",
" i    c #D0D0D0",
" j    c #DBDBDB",
" k    c #001422",
" l    c #FFA252",
" m    c #602606",
" n    c #C4CFD4",
" o    c #CCCCCC",
" p    c #C5C5C5",
" q    c #CCDBDB",
" r    c #70787C",
" s    c #702F0B",
" t    c #FF9750",
" u    c #682600",
" v    c #576369",
" w    c #C1D0D0",
" x    c #F85050",
" y    c #445454",
" z    c #001D2A",
" A    c #FF974C",
" B    c #FF8F4C",
" C    c #602200",
" D    c #D3DADE",
" E    c #E16C2C",
" F    c #000B14",
" G    c #702600",
" H    c #FF8B4A",
" I    c #CB6833",
" J    c #000B19",
" K    c #CBD6DC",
" L    c #FF9F54",
" M    c #FF934A",
" N    c #684837",
" O    c #FF8748",
" P    c #5F2200",
" Q    c #5F2606",
" R    c #FF9B52",
" S    c #BC5822",
" T    c #BCCBD3",
" U    c #D4D4D4",
" V    c #FF934E",
" W    c #682200",
" X    c #C4C4C4",
" Y    c #676767",
" Z    c #6F6F6F",
" &    c #777777",
"0     c #6B6B6B",
"00    c #FF8F48",
"01    c #C4581D",
"02    c #000F1B",
"03    c #B5B5B5",
"04    c #FF8B3D",
"05    c #58483F",
"06    c #A5A5A5",
"07    c #584439",
"08    c #BC5014",
"09    c #577381",
"0a    c #C4C7C9",
"0b    c #BCCFD8",
"0c    c #BC541B",
"0d    c #C4D3DA",
"0e    c #5F1D00",
"0f    c #001928",
"0g    c #FF9346",
"0h    c #687880",
"0i    c #CB6026",
"0j    c #503F37",
"0k    c #60747E",
"0l    c #CB642C",
"0m    c #BCC0C2",
"0n    c #581400",
"0o    c #7F6F5F",
"0p    c #877B6F",
"0q    c #877767",
"0r    c #877F77",
"0s    c #7F776F",
"0t    c #503B31",
"0u    c #58707C",
"0v    c #8F8070",
"0w    c #008FFF",
"0x    c #005CBC",
"0y    c #0068D3",
"0z    c #002F7B",
"0A    c #002F7F",
"0B    c #003383",
"0C    c #00338A",
"0D    c #807870",
"0E    c #26190B",
"0F    c #0068CB",
"0G    c #0064BC",
"0H    c #0093FF",
"0I    c #002A64",
"0J    c #DBC5AE",
"0K    c #F9EADB",
"0L    c #D0C1B2",
"0M    c #746454",
"0N    c #7C7C7C",
"0O    c #8F8478",
"0P    c #006CCB",
"0Q    c #0097FF",
"0R    c #0070D3",
"0S    c #00377B",
"0T    c #00377F",
"0U    c #003B83",
"0V    c #003B8A",
"0W    c #878078",
"0X    c #003787",
"0Y    c #00061D",
"0Z    c #003B7F",
"0&    c #003F87",
"1     c #681D00",
"10    c #787878",
"11    c #978F87",
"12    c #97938F",
"13    c #8F8F8F",
"14    c #601400",
"15    c #1D1D1D",
"16    c #262626",
"17    c #CBD3D6",
"18    c #772600",
"                                                                ",
"       0 1 2                                                    ",
"         3                                                      ",
"         4                                                      ",
"         5                         6 7 8                        ",
"     5 9 a b b b b c d           e d f g                        ",
"     3 h i i i i i j c           k l m n                        ",
"     3 o p p p p p q b         r s t u         6 v              ",
"     3 o p p p p w x y         z A B C       D d E F            ",
"     3 o p p p p w x y         G B H I J   K d L M N            ",
"     3 o p p p p p q b         u B O B I P Q R H S T            ",
"     4 U o o o o o h 9         u B O O H B B O V W              ",
"     X Y Z Z Z Z Z &0          u B O O O O O000102              ",
"                  03         n m B O O O H0405 T                ",
"                    06      07 M O O O t08090a                  ",
"                      06  0b0c H O O R d0d                      ",
"                         r0e V O O B u K                        ",
"                        0f A O O O0g J                          ",
"                      0h0i H O O000j                            ",
"                       d t O O H0c0d                            ",
"                    0k0l H O O M070m                            ",
"                    0n V O O B0n    06   X0o0p0q0p0r0r0r0s X    ",
"                  0t M O O O040u      030v0w0x0w0y0z0A0B0C0D    ",
"                0d0c H O O000j          0E0F0G0H0I0J0K0L0M0N    ",
"                 d t O O H0c T          0O0y0P0Q0R0S0T0U0V0W    ",
"              0u0g O O O M0t            0W0X0Y0Z0Z0&0&0&0X0W    ",
"              1  B O O B0n              10111211111111111110    ",
"               u B O H040u              10131313131313131310    ",
"              14 A V0l0t                 31516161616161615 3    ",
"              17 k1802                                          ",
"                                                                ",
"                                                                "};
